<svg viewBox="0 -38 512.00025 512" xmlns="http://www.w3.org/2000/svg"><g fill="#FFFFFF"><path d="m506.140625 314.15625c-7.808594-7.808594-20.472656-7.808594-28.28125 0l-25.457031-25.457031 28.285156-28.28125c7.804688-7.804688 7.808594-20.476563 0-28.285157l-226.277344-226.273437c-7.808594-7.8125-20.472656-7.8125-28.28125 0l-141.421875 141.421875c-7.804687 7.804688-7.808593 20.472656 0 28.28125l111.722657 111.726562-28.714844 28.710938h-51.714844v-60c0-11.046875-8.953125-20-20-20h-76c-11.046875 0-20 8.953125-20 20v160c0 11.046875 8.953125 20 20 20h76c11.046875 0 20-8.953125 20-20v-60h60c5.304688 0 10.390625-2.105469 14.140625-5.855469l34.574219-34.574219 86.265625 86.269532c7.808593 7.808594 20.472656 7.808594 28.285156 0l28.285156-28.285156 25.453125 25.453124c-7.808594 7.8125-7.808594 20.476563 0 28.285157 7.8125 7.808593 20.472656 7.8125 28.285156 0l84.851563-84.851563c7.8125-7.808594 7.8125-20.472656 0-28.285156zm-430.140625 81.84375h-36v-120h36zm249.121094-36.589844c-8.5625-8.5625-189.261719-189.265625-197.988282-197.988281l113.136719-113.136719 197.992188 197.988282zm98.996094-42.425781 25.457031 25.457031-28.285157 28.285156-25.453124-25.457031c6.628906-6.632812 21.640624-21.640625 28.28125-28.285156zm0 0"/></g></svg>