<svg id="Capa_1" enable-background="new 0 0 511.811 511.811"  viewBox="0 0 511.811 511.811"  xmlns="http://www.w3.org/2000/svg"><g fill="#FFFFFF"><path d="m268.131 68.338.252 31.743c21.576 4.065 41.852 13.826 58.745 28.709 1.851 1.631 3.674 3.335 5.422 5.067l48.635 48.176c.744.744 1.477 1.495 2.199 2.253 16.405 17.228 27.157 38.292 31.546 60.877l32.113.77c.12.003.239.004.359.004 34.228 0 62.075-27.647 62.075-61.63 0-16.337-6.409-31.728-18.056-43.374-.072-.072-.144-.143-.216-.215-5.718-5.665-12.339-10.089-19.533-13.139l21.962-21.755c11.721-11.609 18.175-27.103 18.176-43.629 0-16.525-6.442-32.006-18.175-43.629-24.175-23.947-63.512-23.947-87.686 0l-20.945 20.747c-10.462-19.453-31.116-32.725-54.798-32.724-16.502 0-32.058 6.406-43.804 18.04-11.783 11.672-18.272 27.152-18.272 43.59.001.039.001.079.001.119z"/><path d="m95.661 433.416c-.018-.018-.037-.037-.054-.054-5.833-5.833-5.863-15.29-.051-21.159 5.829-5.887 15.326-5.935 21.213-.106l39.504 39.395 103.742-56.939-88.772-88.271c-.016-.016-.033-.033-.048-.048-5.836-5.836-5.862-15.297-.046-21.165 5.832-5.883 15.329-5.926 21.213-.094l95.094 94.516 50.242-27.576c26.167-14.361 43.787-39.438 48.344-68.802 4.454-28.707-4.432-57.187-24.381-78.137-.65-.682-1.312-1.357-1.986-2.026l-48.237-47.78c-1.335-1.322-2.728-2.624-4.141-3.869-21.332-18.794-49.823-26.814-78.169-22.003-17.117 2.904-32.773 10.202-45.639 20.955l122.59 121.809.048.048c5.836 5.836 5.862 15.297.047 21.165-5.832 5.884-15.329 5.927-21.213.095l-121.231-120.371c-.759 1.218-1.499 2.45-2.207 3.708l-67.059 119.228 65.727 65.437c.014.015.03.03.044.044 5.838 5.838 5.862 15.302.043 21.169-5.834 5.882-15.332 5.921-21.214.087l-51.834-51.408c-.002-.002-3.492-3.492-8.088-8.088l-75.925 134.993c-.44.782-.809 1.603-1.102 2.45-4.776 13.808-1.33 28.835 8.992 39.217.028.028.054.055.082.083 10.432 10.431 25.595 13.959 39.601 9.205.829-.281 1.631-.634 2.397-1.055l75.679-41.537z"/></g></svg>