<?xml version="1.0" encoding="iso-8859-1"?>

<svg version="1.1" id="Capa_1" xmlns="http://www.w3.org/2000/svg" xmlns:xlink="http://www.w3.org/1999/xlink" x="0px" y="0px"
	 viewBox="0 0 512 512" style="enable-background:new 0 0 512 512;" xml:space="preserve">
<g fill="#FFFFFF">
	<g>
		<path d="M468.642,150l-35-100H387V37h-30v13h-41V0h-55v130h55V80h41v202h-96V130h-30v152H30V80h41v50h60V0H71v50H30V37H0v315h157
			v30H0v130h387v-63h-97v-30h97V80h25.357l35,100H512v-30H468.642z M236,449H123v-30h113V449z M311,382H207v-30h104V382z"/>
	</g>
</g>
<g>
	<g fill="#FFFFFF">
		<rect x="211" width="20" height="130"/>
	</g>
</g>
<g>
	<g fill="#FFFFFF">
		<rect x="161" width="20" height="130"/>
	</g>
</g>
<g>
</g>
<g>
</g>
<g>
</g>
<g>
</g>
<g>
</g>
<g>
</g>
<g>
</g>
<g>
</g>
<g>
</g>
<g>
</g>
<g>
</g>
<g>
</g>
<g>
</g>
<g>
</g>
<g>
</g>
</svg>
