<?xml version="1.0" encoding="iso-8859-1"?> <svg version="1.1" id="Capa_1" xmlns="http://www.w3.org/2000/svg" xmlns:xlink="http://www.w3.org/1999/xlink" x="0px" y="0px" viewBox="0 0 334 334" style="enable-background:new 0 0 334 334;" xml:space="preserve"> <g  fill="#FFFFFF"> <g fill="#FFFFFF"> <path d="M298.6,84.4c0.4-0.4,0.4-0.4,0-0.8c0-0.4-0.4-0.8-0.4-1.2c0-0.4-0.4-0.4-0.4-0.8c0-0.4-0.4-0.8-0.4-1.2 c0-0.4-0.4-0.4-0.4-0.8c-0.4-0.4-0.4-0.8-0.8-0.8l-76-76c-0.4-0.4-1.2-0.8-1.6-1.2c-0.4,0-0.4-0.4-0.8-0.4 c-0.4-0.4-0.8-0.4-1.2-0.4c-0.4,0-0.4,0-0.8-0.4c-0.4,0-0.8-0.4-1.2-0.4c-0.4,0-1.2,0-1.6,0h-0.4H73.8C63,0,53.4,4.4,46.2,11.6 C39,18.4,35,28.4,35,38.8v256c0,10.8,4.4,20.4,11.6,27.6c7.2,7.2,16.8,11.6,27.6,11.6h186.4c10.8,0,20.4-4.4,27.6-11.6 c6.8-7.2,10.8-17.2,10.8-27.6V86.4C299,85.6,299,84.8,298.6,84.4z M222.6,34.8L264.2,76h-22.8c-5.2,0-9.6-2-13.2-5.6 c-3.2-3.2-5.6-8-5.6-13.2V34.8z M278.6,294.8c0,5.2-2,9.6-5.6,13.2c-3.2,3.2-8,5.6-13.2,5.6h-186c-5.2,0-9.6-2-13.2-5.6 c-3.2-3.2-5.6-8-5.6-13.2v-256c0-5.2,2-9.6,5.6-13.2c3.2-3.2,8-5.6,13.2-5.6h128.4v37.2c0,10.8,4.4,20.4,11.6,27.6 s16.8,11.6,27.6,11.6h37.2V294.8z"/> </g> </g> <g fill="#FFFFFF"> <g> <path d="M241,123.6H93c-5.6,0-10.4,4.4-10.4,10.4S87,144.4,93,144.4h148c5.6,0,10.4-4.4,10.4-10.4S247,123.6,241,123.6z"/> </g> </g> <g fill="#FFFFFF"> <g> <path d="M241,189.2H93c-5.6,0-10.4,4.4-10.4,10.4c0,5.6,4.4,10.4,10.4,10.4h148c5.6,0,10.4-4.4,10.4-10.4 C251,194,246.6,189.2,241,189.2z"/> </g> </g> <g fill="#FFFFFF"> <g> <path d="M241,254.8H93c-5.6,0-10.4,4.4-10.4,10.4c0,5.6,4.4,10.4,10.4,10.4h148c5.6,0,10.4-4.4,10.4-10.4 C251,259.6,246.6,254.8,241,254.8z"/> </g> </g> <g> </g> <g> </g> <g> </g> <g> </g> <g> </g> <g> </g> <g> </g> <g> </g> <g> </g> <g> </g> <g> </g> <g> </g> <g> </g> <g> </g> <g> </g> </svg>