<?xml version="1.0" encoding="iso-8859-1"?>  <svg version="1.1" id="Capa_1" xmlns="http://www.w3.org/2000/svg" xmlns:xlink="http://www.w3.org/1999/xlink" x="0px" y="0px" viewBox="0 0 512 512" style="enable-background:new 0 0 512 512;" xml:space="preserve"> <g fill="#FFFFFF"> <g> <path d="M421,211v-46C421,74.019,346.981,0,256,0S91,74.019,91,165v46H61v301h390V211H421z M121,165c0-74.439,60.561-135,135-135 s135,60.561,135,135v46h-30v-46c0-57.897-47.103-105-105-105c-57.897,0-105,47.103-105,105v46h-30V165z M331,165v46H181v-46 c0-41.355,33.645-75,75-75C297.355,90,331,123.645,331,165z M421,482H91v-30h330V482z M421,422H91V241c9.676,0,302.027,0,330,0 V422z"/> </g> </g> <g fill="#FFFFFF"> <g> <path d="M256,271c-24.813,0-45,20.187-45,45c0,19.555,12.541,36.228,30,42.42V392h30v-33.58c17.459-6.192,30-22.865,30-42.42 C301,291.187,280.813,271,256,271z M256,331c-8.271,0-15-6.729-15-15s6.729-15,15-15s15,6.729,15,15S264.271,331,256,331z"/> </g> </g> <g> </g> <g> </g> <g> </g> <g> </g> <g> </g> <g> </g> <g> </g> <g> </g> <g> </g> <g> </g> <g> </g> <g> </g> <g> </g> <g> </g> <g> </g> </svg>