<svg id="Capa_1" enable-background="new 0 0 512.001 512.001"  viewBox="0 0 512.001 512.001"  xmlns="http://www.w3.org/2000/svg"><g fill="#FFFFFF"><path d="m284.771 90.251c-62.38 0-113.13 50.75-113.13 113.13s50.75 113.13 113.13 113.13 113.13-50.75 113.13-113.13-50.75-113.13-113.13-113.13zm12 196.622h-30v-30.124h30zm12.796-81.594c-8.012 5.893-12.795 15.633-12.795 26.055h-30c0-19.924 9.354-38.699 25.02-50.222 4.586-3.373 7.167-8.788 6.905-14.486-.397-8.633-7.472-15.708-16.106-16.105-4.691-.219-9.141 1.441-12.519 4.668-3.382 3.23-5.245 7.583-5.245 12.257h-30c0-12.761 5.294-25.136 14.524-33.952 9.363-8.942 21.657-13.532 34.618-12.942 23.96 1.103 43.593 20.735 44.696 44.695.724 15.739-6.416 30.704-19.098 40.032z"/><path d="m488.39 202.648c0-111.92-90.728-202.648-202.648-202.648-90.163 0-166.564 58.878-192.868 140.28l-9.76 60.392-59.504 98.703v29.92h47.385l20.165 110.149h112.918l17.139 72.557h228.021l-28.235-158.448c41.367-37.101 67.387-90.969 67.387-150.905zm-203.619 143.863c-78.922 0-143.13-64.208-143.13-143.13s64.208-143.13 143.13-143.13 143.13 64.208 143.13 143.13-64.208 143.13-143.13 143.13z"/></g></svg>