<svg  viewBox="-37 1 511 511.99975"  xmlns="http://www.w3.org/2000/svg"><g fill="#FFFFFF"><path d="m416.5 472h-20.546875l-44.535156-326h21.082031c11.046875 0 20-8.953125 20-20s-8.953125-20-20-20h-35.933594l-104.1875-100.402344c-7.746094-7.464844-20.011718-7.464844-27.757812 0l-104.1875 100.402344h-35.933594c-11.046875 0-20 8.953125-20 20s8.953125 20 20 20h21.082031l-44.535156 326h-20.546875c-11.046875 0-20 8.953125-20 20s8.953125 20 20 20h396c11.046875 0 20-8.953125 20-20s-8.953125-20-20-20zm-77.3125-120.011719-93.757812-103.988281 69.085937-76.621094zm-120.6875-304.214843 60.421875 58.226562h-120.84375zm65.039062 98.226562-65.039062 72.132812-65.039062-72.132812zm-161.054687 25.378906 69.085937 76.621094-93.757812 103.988281zm-41.066406 300.621094 12.121093-88.738281c.039063.042969.070313.089843.105469.132812l79.894531 88.605469zm54.011719-102 83.070312-92.132812 83.070312 92.132812-83.070312 92.132812zm128.03125 102 79.894531-88.605469c.035156-.042969.066406-.089843.105469-.132812l12.121093 88.738281zm0 0"/></g></svg>